# xmcd
#
# Track frame offsets: 
#        150
#        14342
#        29530
#        44005
#        54047
#        67985
#        80980
#        93957
#        105145
#        116510
#        127720
#        141432
#        155115
#        166850
#        179867
#        192705
#        205787
#        217490
#        230335
#        241730
#        255222
#        269147
#        284777
#        295920
#        308367
#        324240
#
# Disc length: 4508 seconds
#
# Revision: 0
# Processed by: cddbd v1.5.2PL0 Copyright (c) Steve Scherf et al.
# Submitted via: ExactAudioCopy v0.99pb4
#
DISCID=81119a1a
DTITLE=Various Artist - Let Me Be Your Sidetrack CD 2
DYEAR=2008
DGENRE=Country
TTITLE0=Roy Bledsoe - She's In The Jailhouse Now (In The Jailhouse Now
TTITLE0=)
TTITLE1=Rice Brothers Gang - My Carolina Sunshine Girl
TTITLE2=Gene Autry - Pistol Packin' Papa
TTITLE3=Tune Wranglers - Sweetest Girl In The World (My Blue Eyed Jane
TTITLE3=)
TTITLE4=Pie Plant Pete (Claude Moye) - Waiting For The Railroad Train 
TTITLE4=(Waiting For A Train)
TTITLE5=Bill Monroe - Blue Yodel No. 7
TTITLE6=The Light Crust Doughboys - Prairie Lullaby
TTITLE7=Roy Rogers - Hadie Brown (My Little Lady)
TTITLE8=The Monroe Brothers - The Old Man's Story (Why There's A Tear 
TTITLE8=In My Eye)
TTITLE9=Bill Cox - My Rough And Rowdy Ways
TTITLE10=Clayton McMichen - Prohibition Blues (Prohibition Has Done Me
TTITLE10=Wrong)
TTITLE11=Ross' Rhythm Rascals - Tuck Away My Lonesome Blues
TTITLE12=Cliff Carlisle - Memphis Yodel
TTITLE13=Joe Steen - Ben Dewberry's Final Run
TTITLE14=Bob Wills and His Texas Playboys - Mean Mama Blues (Jimmie' Mea
TTITLE14=n Mama Blues)
TTITLE15=Dwight Butcher - No Hard Times
TTITLE16=Jimmie Davis with Charles Mitchell's Orchestra - Roll Along K
TTITLE16=entucky Moon
TTITLE17=Gene Autry - In The Jailhouse Now, No. 2
TTITLE18=Jack and Leslie - Mississippi River Blues
TTITLE19=Harry Hillard - Blue Yodel No. 9
TTITLE20=Texas Ruby - Blue Yodel No. 1 (T For Texas)
TTITLE21=Frankie Marvin (Frankie Wallace) - Away Out On The Mountain
TTITLE22=Buell Kazee - Gambling Blues (Those Gambler's Blues)
TTITLE23=Howard Keesee - My Little Old Home Down In New Orleans
TTITLE24=Jess Hillard - Blue Yodel No. 10 (Ground Hog Rootin' In My Ba
TTITLE24=ck Yard)
TTITLE25=Beverly Long - The Soldier's Sweetheart
EXTD=
EXTT0=
EXTT1=
EXTT2=
EXTT3=
EXTT4=
EXTT5=
EXTT6=
EXTT7=
EXTT8=
EXTT9=
EXTT10=
EXTT11=
EXTT12=
EXTT13=
EXTT14=
EXTT15=
EXTT16=
EXTT17=
EXTT18=
EXTT19=
EXTT20=
EXTT21=
EXTT22=
EXTT23=
EXTT24=
EXTT25=
PLAYORDER=
